<mxfile host="app.diagrams.net" modified="2024-06-13T16:06:20.068Z" agent="Mozilla/5.0 (Windows NT 10.0; Win64; x64) AppleWebKit/537.36 (KHTML, like Gecko) Chrome/125.0.0.0 Safari/537.36" etag="bI7tGDWqX2TTPxpnWw4n" version="24.5.4" type="device">
  <diagram name="Page-1" id="S8YTOZrHcixdIfj45pyo">
    <mxGraphModel dx="2461" dy="1601" grid="1" gridSize="10" guides="1" tooltips="1" connect="1" arrows="1" fold="1" page="1" pageScale="1" pageWidth="850" pageHeight="1100" math="0" shadow="0">
      <root>
        <mxCell id="0" />
        <mxCell id="1" parent="0" />
        <mxCell id="PVSmNiR2cH8IBzTru6Gr-1" value="ElevatorCar" style="swimlane;fontStyle=1;align=center;verticalAlign=top;childLayout=stackLayout;horizontal=1;startSize=26;horizontalStack=0;resizeParent=1;resizeParentMax=0;resizeLast=0;collapsible=1;marginBottom=0;whiteSpace=wrap;html=1;" vertex="1" parent="1">
          <mxGeometry x="210" y="220" width="210" height="218" as="geometry" />
        </mxCell>
        <mxCell id="PVSmNiR2cH8IBzTru6Gr-2" value="&lt;div&gt;+ id: int&lt;/div&gt;+ display : Display&lt;div&gt;+ currentFloor : int&lt;/div&gt;&lt;div&gt;+ direction : Direction&lt;/div&gt;&lt;div&gt;+ status : Status&lt;/div&gt;&lt;div&gt;+ button : InternalButton&lt;/div&gt;&lt;div&gt;+ door : Door&lt;/div&gt;" style="text;strokeColor=none;fillColor=none;align=left;verticalAlign=top;spacingLeft=4;spacingRight=4;overflow=hidden;rotatable=0;points=[[0,0.5],[1,0.5]];portConstraint=eastwest;whiteSpace=wrap;html=1;" vertex="1" parent="PVSmNiR2cH8IBzTru6Gr-1">
          <mxGeometry y="26" width="210" height="124" as="geometry" />
        </mxCell>
        <mxCell id="PVSmNiR2cH8IBzTru6Gr-3" value="" style="line;strokeWidth=1;fillColor=none;align=left;verticalAlign=middle;spacingTop=-1;spacingLeft=3;spacingRight=3;rotatable=0;labelPosition=right;points=[];portConstraint=eastwest;strokeColor=inherit;" vertex="1" parent="PVSmNiR2cH8IBzTru6Gr-1">
          <mxGeometry y="150" width="210" height="8" as="geometry" />
        </mxCell>
        <mxCell id="PVSmNiR2cH8IBzTru6Gr-4" value="+ method(type): type" style="text;strokeColor=none;fillColor=none;align=left;verticalAlign=top;spacingLeft=4;spacingRight=4;overflow=hidden;rotatable=0;points=[[0,0.5],[1,0.5]];portConstraint=eastwest;whiteSpace=wrap;html=1;" vertex="1" parent="PVSmNiR2cH8IBzTru6Gr-1">
          <mxGeometry y="158" width="210" height="60" as="geometry" />
        </mxCell>
        <mxCell id="PVSmNiR2cH8IBzTru6Gr-5" value="Display" style="swimlane;fontStyle=1;align=center;verticalAlign=top;childLayout=stackLayout;horizontal=1;startSize=26;horizontalStack=0;resizeParent=1;resizeParentMax=0;resizeLast=0;collapsible=1;marginBottom=0;whiteSpace=wrap;html=1;" vertex="1" parent="1">
          <mxGeometry x="215" y="-70" width="210" height="158" as="geometry" />
        </mxCell>
        <mxCell id="PVSmNiR2cH8IBzTru6Gr-6" value="+ floor : int&lt;div&gt;+ direction : Direction&lt;/div&gt;" style="text;strokeColor=none;fillColor=none;align=left;verticalAlign=top;spacingLeft=4;spacingRight=4;overflow=hidden;rotatable=0;points=[[0,0.5],[1,0.5]];portConstraint=eastwest;whiteSpace=wrap;html=1;" vertex="1" parent="PVSmNiR2cH8IBzTru6Gr-5">
          <mxGeometry y="26" width="210" height="64" as="geometry" />
        </mxCell>
        <mxCell id="PVSmNiR2cH8IBzTru6Gr-7" value="" style="line;strokeWidth=1;fillColor=none;align=left;verticalAlign=middle;spacingTop=-1;spacingLeft=3;spacingRight=3;rotatable=0;labelPosition=right;points=[];portConstraint=eastwest;strokeColor=inherit;" vertex="1" parent="PVSmNiR2cH8IBzTru6Gr-5">
          <mxGeometry y="90" width="210" height="8" as="geometry" />
        </mxCell>
        <mxCell id="PVSmNiR2cH8IBzTru6Gr-8" value="+ method(type): type" style="text;strokeColor=none;fillColor=none;align=left;verticalAlign=top;spacingLeft=4;spacingRight=4;overflow=hidden;rotatable=0;points=[[0,0.5],[1,0.5]];portConstraint=eastwest;whiteSpace=wrap;html=1;" vertex="1" parent="PVSmNiR2cH8IBzTru6Gr-5">
          <mxGeometry y="98" width="210" height="60" as="geometry" />
        </mxCell>
        <mxCell id="PVSmNiR2cH8IBzTru6Gr-9" value="enum Direction {&lt;div&gt;&lt;span style=&quot;background-color: initial;&quot;&gt;&amp;nbsp; &amp;nbsp; &amp;nbsp;UP,&lt;/span&gt;&lt;/div&gt;&lt;div&gt;&lt;span style=&quot;background-color: initial;&quot;&gt;&amp;nbsp; &amp;nbsp; &amp;nbsp;DOWN;&lt;/span&gt;&lt;div&gt;}&lt;/div&gt;&lt;/div&gt;" style="html=1;whiteSpace=wrap;align=left;" vertex="1" parent="1">
          <mxGeometry x="550" y="61" width="110" height="70" as="geometry" />
        </mxCell>
        <mxCell id="PVSmNiR2cH8IBzTru6Gr-10" value="enum Status {&lt;div&gt;&amp;nbsp; &amp;nbsp;IDLE,&lt;/div&gt;&lt;div&gt;&amp;nbsp; &amp;nbsp;MOVING;&lt;/div&gt;&lt;div&gt;}&lt;/div&gt;" style="html=1;whiteSpace=wrap;align=left;" vertex="1" parent="1">
          <mxGeometry x="690" y="61" width="110" height="70" as="geometry" />
        </mxCell>
        <mxCell id="PVSmNiR2cH8IBzTru6Gr-11" value="InternalButton" style="swimlane;fontStyle=1;align=center;verticalAlign=top;childLayout=stackLayout;horizontal=1;startSize=26;horizontalStack=0;resizeParent=1;resizeParentMax=0;resizeLast=0;collapsible=1;marginBottom=0;whiteSpace=wrap;html=1;" vertex="1" parent="1">
          <mxGeometry x="-140" y="-10" width="210" height="158" as="geometry" />
        </mxCell>
        <mxCell id="PVSmNiR2cH8IBzTru6Gr-12" value="+ obj : InternalButtonDispatcher" style="text;strokeColor=none;fillColor=none;align=left;verticalAlign=top;spacingLeft=4;spacingRight=4;overflow=hidden;rotatable=0;points=[[0,0.5],[1,0.5]];portConstraint=eastwest;whiteSpace=wrap;html=1;" vertex="1" parent="PVSmNiR2cH8IBzTru6Gr-11">
          <mxGeometry y="26" width="210" height="64" as="geometry" />
        </mxCell>
        <mxCell id="PVSmNiR2cH8IBzTru6Gr-13" value="" style="line;strokeWidth=1;fillColor=none;align=left;verticalAlign=middle;spacingTop=-1;spacingLeft=3;spacingRight=3;rotatable=0;labelPosition=right;points=[];portConstraint=eastwest;strokeColor=inherit;" vertex="1" parent="PVSmNiR2cH8IBzTru6Gr-11">
          <mxGeometry y="90" width="210" height="8" as="geometry" />
        </mxCell>
        <mxCell id="PVSmNiR2cH8IBzTru6Gr-14" value="+ pressButton(int button)" style="text;strokeColor=none;fillColor=none;align=left;verticalAlign=top;spacingLeft=4;spacingRight=4;overflow=hidden;rotatable=0;points=[[0,0.5],[1,0.5]];portConstraint=eastwest;whiteSpace=wrap;html=1;" vertex="1" parent="PVSmNiR2cH8IBzTru6Gr-11">
          <mxGeometry y="98" width="210" height="60" as="geometry" />
        </mxCell>
        <mxCell id="PVSmNiR2cH8IBzTru6Gr-15" value="" style="endArrow=diamondThin;endFill=1;endSize=24;html=1;rounded=0;exitX=0.092;exitY=-0.022;exitDx=0;exitDy=0;exitPerimeter=0;entryX=1.003;entryY=0.717;entryDx=0;entryDy=0;entryPerimeter=0;" edge="1" parent="1" source="PVSmNiR2cH8IBzTru6Gr-1" target="PVSmNiR2cH8IBzTru6Gr-14">
          <mxGeometry width="160" relative="1" as="geometry">
            <mxPoint x="30" y="70" as="sourcePoint" />
            <mxPoint x="190" y="70" as="targetPoint" />
            <Array as="points">
              <mxPoint x="230" y="131" />
            </Array>
          </mxGeometry>
        </mxCell>
        <mxCell id="PVSmNiR2cH8IBzTru6Gr-16" value="" style="endArrow=diamondThin;endFill=1;endSize=24;html=1;rounded=0;exitX=0.092;exitY=-0.022;exitDx=0;exitDy=0;exitPerimeter=0;" edge="1" parent="1">
          <mxGeometry width="160" relative="1" as="geometry">
            <mxPoint x="368" y="220" as="sourcePoint" />
            <mxPoint x="369" y="90" as="targetPoint" />
            <Array as="points">
              <mxPoint x="369" y="136" />
            </Array>
          </mxGeometry>
        </mxCell>
        <mxCell id="PVSmNiR2cH8IBzTru6Gr-17" value="ElevatorController" style="swimlane;fontStyle=1;align=center;verticalAlign=top;childLayout=stackLayout;horizontal=1;startSize=26;horizontalStack=0;resizeParent=1;resizeParentMax=0;resizeLast=0;collapsible=1;marginBottom=0;whiteSpace=wrap;html=1;" vertex="1" parent="1">
          <mxGeometry x="-250" y="240" width="300" height="158" as="geometry" />
        </mxCell>
        <mxCell id="PVSmNiR2cH8IBzTru6Gr-18" value="+ obj : Elevator&lt;div&gt;+ minheap&lt;/div&gt;&lt;div&gt;+ maxheap&lt;/div&gt;" style="text;strokeColor=none;fillColor=none;align=left;verticalAlign=top;spacingLeft=4;spacingRight=4;overflow=hidden;rotatable=0;points=[[0,0.5],[1,0.5]];portConstraint=eastwest;whiteSpace=wrap;html=1;" vertex="1" parent="PVSmNiR2cH8IBzTru6Gr-17">
          <mxGeometry y="26" width="300" height="64" as="geometry" />
        </mxCell>
        <mxCell id="PVSmNiR2cH8IBzTru6Gr-19" value="" style="line;strokeWidth=1;fillColor=none;align=left;verticalAlign=middle;spacingTop=-1;spacingLeft=3;spacingRight=3;rotatable=0;labelPosition=right;points=[];portConstraint=eastwest;strokeColor=inherit;" vertex="1" parent="PVSmNiR2cH8IBzTru6Gr-17">
          <mxGeometry y="90" width="300" height="8" as="geometry" />
        </mxCell>
        <mxCell id="PVSmNiR2cH8IBzTru6Gr-20" value="+ acceptNewRequest(int floor, Direction direction) :&lt;div&gt;+ controlElevatorCar() :&lt;/div&gt;" style="text;strokeColor=none;fillColor=none;align=left;verticalAlign=top;spacingLeft=4;spacingRight=4;overflow=hidden;rotatable=0;points=[[0,0.5],[1,0.5]];portConstraint=eastwest;whiteSpace=wrap;html=1;" vertex="1" parent="PVSmNiR2cH8IBzTru6Gr-17">
          <mxGeometry y="98" width="300" height="60" as="geometry" />
        </mxCell>
        <mxCell id="PVSmNiR2cH8IBzTru6Gr-21" value="" style="endArrow=diamondThin;endFill=1;endSize=24;html=1;rounded=0;exitX=1.016;exitY=0.751;exitDx=0;exitDy=0;exitPerimeter=0;entryX=0.001;entryY=0.583;entryDx=0;entryDy=0;entryPerimeter=0;" edge="1" parent="1" source="PVSmNiR2cH8IBzTru6Gr-18" target="PVSmNiR2cH8IBzTru6Gr-2">
          <mxGeometry width="160" relative="1" as="geometry">
            <mxPoint x="70" y="360" as="sourcePoint" />
            <mxPoint x="71" y="230" as="targetPoint" />
            <Array as="points" />
          </mxGeometry>
        </mxCell>
        <mxCell id="PVSmNiR2cH8IBzTru6Gr-22" value="InternalButtonDispatcher" style="swimlane;fontStyle=1;align=center;verticalAlign=top;childLayout=stackLayout;horizontal=1;startSize=26;horizontalStack=0;resizeParent=1;resizeParentMax=0;resizeLast=0;collapsible=1;marginBottom=0;whiteSpace=wrap;html=1;" vertex="1" parent="1">
          <mxGeometry x="-660" y="240" width="300" height="158" as="geometry" />
        </mxCell>
        <mxCell id="PVSmNiR2cH8IBzTru6Gr-23" value="+ list : List&amp;lt;Elevator&amp;gt;" style="text;strokeColor=none;fillColor=none;align=left;verticalAlign=top;spacingLeft=4;spacingRight=4;overflow=hidden;rotatable=0;points=[[0,0.5],[1,0.5]];portConstraint=eastwest;whiteSpace=wrap;html=1;" vertex="1" parent="PVSmNiR2cH8IBzTru6Gr-22">
          <mxGeometry y="26" width="300" height="64" as="geometry" />
        </mxCell>
        <mxCell id="PVSmNiR2cH8IBzTru6Gr-24" value="" style="line;strokeWidth=1;fillColor=none;align=left;verticalAlign=middle;spacingTop=-1;spacingLeft=3;spacingRight=3;rotatable=0;labelPosition=right;points=[];portConstraint=eastwest;strokeColor=inherit;" vertex="1" parent="PVSmNiR2cH8IBzTru6Gr-22">
          <mxGeometry y="90" width="300" height="8" as="geometry" />
        </mxCell>
        <mxCell id="PVSmNiR2cH8IBzTru6Gr-25" value="+ submitRequest(int id)" style="text;strokeColor=none;fillColor=none;align=left;verticalAlign=top;spacingLeft=4;spacingRight=4;overflow=hidden;rotatable=0;points=[[0,0.5],[1,0.5]];portConstraint=eastwest;whiteSpace=wrap;html=1;" vertex="1" parent="PVSmNiR2cH8IBzTru6Gr-22">
          <mxGeometry y="98" width="300" height="60" as="geometry" />
        </mxCell>
        <mxCell id="PVSmNiR2cH8IBzTru6Gr-26" value="ExternalButtonDispatcher" style="swimlane;fontStyle=1;align=center;verticalAlign=top;childLayout=stackLayout;horizontal=1;startSize=26;horizontalStack=0;resizeParent=1;resizeParentMax=0;resizeLast=0;collapsible=1;marginBottom=0;whiteSpace=wrap;html=1;" vertex="1" parent="1">
          <mxGeometry x="-1040" y="300" width="300" height="154" as="geometry" />
        </mxCell>
        <mxCell id="PVSmNiR2cH8IBzTru6Gr-27" value="+ obj : List&amp;lt;Elevator&amp;gt;" style="text;strokeColor=none;fillColor=none;align=left;verticalAlign=top;spacingLeft=4;spacingRight=4;overflow=hidden;rotatable=0;points=[[0,0.5],[1,0.5]];portConstraint=eastwest;whiteSpace=wrap;html=1;" vertex="1" parent="PVSmNiR2cH8IBzTru6Gr-26">
          <mxGeometry y="26" width="300" height="60" as="geometry" />
        </mxCell>
        <mxCell id="PVSmNiR2cH8IBzTru6Gr-28" value="" style="line;strokeWidth=1;fillColor=none;align=left;verticalAlign=middle;spacingTop=-1;spacingLeft=3;spacingRight=3;rotatable=0;labelPosition=right;points=[];portConstraint=eastwest;strokeColor=inherit;" vertex="1" parent="PVSmNiR2cH8IBzTru6Gr-26">
          <mxGeometry y="86" width="300" height="8" as="geometry" />
        </mxCell>
        <mxCell id="PVSmNiR2cH8IBzTru6Gr-29" value="+ submit(int floor, Direction direction)" style="text;strokeColor=none;fillColor=none;align=left;verticalAlign=top;spacingLeft=4;spacingRight=4;overflow=hidden;rotatable=0;points=[[0,0.5],[1,0.5]];portConstraint=eastwest;whiteSpace=wrap;html=1;" vertex="1" parent="PVSmNiR2cH8IBzTru6Gr-26">
          <mxGeometry y="94" width="300" height="60" as="geometry" />
        </mxCell>
        <mxCell id="PVSmNiR2cH8IBzTru6Gr-30" value="" style="endArrow=diamondThin;endFill=1;endSize=24;html=1;rounded=0;exitX=-0.012;exitY=0.076;exitDx=0;exitDy=0;exitPerimeter=0;entryX=0.912;entryY=-0.016;entryDx=0;entryDy=0;entryPerimeter=0;" edge="1" parent="1" source="PVSmNiR2cH8IBzTru6Gr-14" target="PVSmNiR2cH8IBzTru6Gr-22">
          <mxGeometry width="160" relative="1" as="geometry">
            <mxPoint x="-346" y="172" as="sourcePoint" />
            <mxPoint x="-504" y="88" as="targetPoint" />
            <Array as="points">
              <mxPoint x="-386" y="93" />
            </Array>
          </mxGeometry>
        </mxCell>
        <mxCell id="PVSmNiR2cH8IBzTru6Gr-31" value="ExternalButton" style="swimlane;fontStyle=1;align=center;verticalAlign=top;childLayout=stackLayout;horizontal=1;startSize=26;horizontalStack=0;resizeParent=1;resizeParentMax=0;resizeLast=0;collapsible=1;marginBottom=0;whiteSpace=wrap;html=1;" vertex="1" parent="1">
          <mxGeometry x="-995" y="10" width="255" height="158" as="geometry" />
        </mxCell>
        <mxCell id="PVSmNiR2cH8IBzTru6Gr-32" value="+ obj : ExternalButtonDispatcher" style="text;strokeColor=none;fillColor=none;align=left;verticalAlign=top;spacingLeft=4;spacingRight=4;overflow=hidden;rotatable=0;points=[[0,0.5],[1,0.5]];portConstraint=eastwest;whiteSpace=wrap;html=1;" vertex="1" parent="PVSmNiR2cH8IBzTru6Gr-31">
          <mxGeometry y="26" width="255" height="64" as="geometry" />
        </mxCell>
        <mxCell id="PVSmNiR2cH8IBzTru6Gr-33" value="" style="line;strokeWidth=1;fillColor=none;align=left;verticalAlign=middle;spacingTop=-1;spacingLeft=3;spacingRight=3;rotatable=0;labelPosition=right;points=[];portConstraint=eastwest;strokeColor=inherit;" vertex="1" parent="PVSmNiR2cH8IBzTru6Gr-31">
          <mxGeometry y="90" width="255" height="8" as="geometry" />
        </mxCell>
        <mxCell id="PVSmNiR2cH8IBzTru6Gr-34" value="+ pressButton(int floor, Direction direction)" style="text;strokeColor=none;fillColor=none;align=left;verticalAlign=top;spacingLeft=4;spacingRight=4;overflow=hidden;rotatable=0;points=[[0,0.5],[1,0.5]];portConstraint=eastwest;whiteSpace=wrap;html=1;" vertex="1" parent="PVSmNiR2cH8IBzTru6Gr-31">
          <mxGeometry y="98" width="255" height="60" as="geometry" />
        </mxCell>
        <mxCell id="PVSmNiR2cH8IBzTru6Gr-35" value="" style="endArrow=diamondThin;endFill=1;endSize=24;html=1;rounded=0;exitX=1.017;exitY=0.795;exitDx=0;exitDy=0;exitPerimeter=0;entryX=0.009;entryY=0.718;entryDx=0;entryDy=0;entryPerimeter=0;" edge="1" parent="1" source="PVSmNiR2cH8IBzTru6Gr-23" target="PVSmNiR2cH8IBzTru6Gr-18">
          <mxGeometry width="160" relative="1" as="geometry">
            <mxPoint x="-390" y="310" as="sourcePoint" />
            <mxPoint x="-235" y="314" as="targetPoint" />
            <Array as="points" />
          </mxGeometry>
        </mxCell>
        <mxCell id="PVSmNiR2cH8IBzTru6Gr-36" value="OddEvenDispatcher" style="swimlane;fontStyle=1;align=center;verticalAlign=top;childLayout=stackLayout;horizontal=1;startSize=26;horizontalStack=0;resizeParent=1;resizeParentMax=0;resizeLast=0;collapsible=1;marginBottom=0;whiteSpace=wrap;html=1;" vertex="1" parent="1">
          <mxGeometry x="-1110" y="580" width="210" height="158" as="geometry" />
        </mxCell>
        <mxCell id="PVSmNiR2cH8IBzTru6Gr-37" value="+" style="text;strokeColor=none;fillColor=none;align=left;verticalAlign=top;spacingLeft=4;spacingRight=4;overflow=hidden;rotatable=0;points=[[0,0.5],[1,0.5]];portConstraint=eastwest;whiteSpace=wrap;html=1;" vertex="1" parent="PVSmNiR2cH8IBzTru6Gr-36">
          <mxGeometry y="26" width="210" height="64" as="geometry" />
        </mxCell>
        <mxCell id="PVSmNiR2cH8IBzTru6Gr-38" value="" style="line;strokeWidth=1;fillColor=none;align=left;verticalAlign=middle;spacingTop=-1;spacingLeft=3;spacingRight=3;rotatable=0;labelPosition=right;points=[];portConstraint=eastwest;strokeColor=inherit;" vertex="1" parent="PVSmNiR2cH8IBzTru6Gr-36">
          <mxGeometry y="90" width="210" height="8" as="geometry" />
        </mxCell>
        <mxCell id="PVSmNiR2cH8IBzTru6Gr-39" value="+" style="text;strokeColor=none;fillColor=none;align=left;verticalAlign=top;spacingLeft=4;spacingRight=4;overflow=hidden;rotatable=0;points=[[0,0.5],[1,0.5]];portConstraint=eastwest;whiteSpace=wrap;html=1;" vertex="1" parent="PVSmNiR2cH8IBzTru6Gr-36">
          <mxGeometry y="98" width="210" height="60" as="geometry" />
        </mxCell>
        <mxCell id="PVSmNiR2cH8IBzTru6Gr-40" value="FixedFloorDispatcher" style="swimlane;fontStyle=1;align=center;verticalAlign=top;childLayout=stackLayout;horizontal=1;startSize=26;horizontalStack=0;resizeParent=1;resizeParentMax=0;resizeLast=0;collapsible=1;marginBottom=0;whiteSpace=wrap;html=1;" vertex="1" parent="1">
          <mxGeometry x="-800" y="580" width="210" height="158" as="geometry" />
        </mxCell>
        <mxCell id="PVSmNiR2cH8IBzTru6Gr-41" value="+" style="text;strokeColor=none;fillColor=none;align=left;verticalAlign=top;spacingLeft=4;spacingRight=4;overflow=hidden;rotatable=0;points=[[0,0.5],[1,0.5]];portConstraint=eastwest;whiteSpace=wrap;html=1;" vertex="1" parent="PVSmNiR2cH8IBzTru6Gr-40">
          <mxGeometry y="26" width="210" height="64" as="geometry" />
        </mxCell>
        <mxCell id="PVSmNiR2cH8IBzTru6Gr-42" value="" style="line;strokeWidth=1;fillColor=none;align=left;verticalAlign=middle;spacingTop=-1;spacingLeft=3;spacingRight=3;rotatable=0;labelPosition=right;points=[];portConstraint=eastwest;strokeColor=inherit;" vertex="1" parent="PVSmNiR2cH8IBzTru6Gr-40">
          <mxGeometry y="90" width="210" height="8" as="geometry" />
        </mxCell>
        <mxCell id="PVSmNiR2cH8IBzTru6Gr-43" value="+" style="text;strokeColor=none;fillColor=none;align=left;verticalAlign=top;spacingLeft=4;spacingRight=4;overflow=hidden;rotatable=0;points=[[0,0.5],[1,0.5]];portConstraint=eastwest;whiteSpace=wrap;html=1;" vertex="1" parent="PVSmNiR2cH8IBzTru6Gr-40">
          <mxGeometry y="98" width="210" height="60" as="geometry" />
        </mxCell>
        <mxCell id="PVSmNiR2cH8IBzTru6Gr-44" value="Extends" style="endArrow=block;endSize=16;endFill=0;html=1;rounded=0;entryX=0.676;entryY=1.086;entryDx=0;entryDy=0;entryPerimeter=0;exitX=0.25;exitY=0;exitDx=0;exitDy=0;" edge="1" parent="1" source="PVSmNiR2cH8IBzTru6Gr-40" target="PVSmNiR2cH8IBzTru6Gr-29">
          <mxGeometry width="160" relative="1" as="geometry">
            <mxPoint x="-700" y="500" as="sourcePoint" />
            <mxPoint x="-540" y="500" as="targetPoint" />
          </mxGeometry>
        </mxCell>
        <mxCell id="PVSmNiR2cH8IBzTru6Gr-45" value="Extends" style="endArrow=block;endSize=16;endFill=0;html=1;rounded=0;entryX=0.455;entryY=1.075;entryDx=0;entryDy=0;entryPerimeter=0;exitX=0.379;exitY=-0.012;exitDx=0;exitDy=0;exitPerimeter=0;" edge="1" parent="1" source="PVSmNiR2cH8IBzTru6Gr-36" target="PVSmNiR2cH8IBzTru6Gr-29">
          <mxGeometry width="160" relative="1" as="geometry">
            <mxPoint x="-1020" y="500" as="sourcePoint" />
            <mxPoint x="-920" y="394" as="targetPoint" />
          </mxGeometry>
        </mxCell>
        <mxCell id="PVSmNiR2cH8IBzTru6Gr-46" value="" style="endArrow=diamondThin;endFill=1;endSize=24;html=1;rounded=0;exitX=1.016;exitY=0.751;exitDx=0;exitDy=0;exitPerimeter=0;entryX=0.398;entryY=1.078;entryDx=0;entryDy=0;entryPerimeter=0;" edge="1" parent="1" target="PVSmNiR2cH8IBzTru6Gr-20">
          <mxGeometry width="160" relative="1" as="geometry">
            <mxPoint x="-740" y="438" as="sourcePoint" />
            <mxPoint x="-585" y="442" as="targetPoint" />
            <Array as="points">
              <mxPoint x="-131" y="438" />
            </Array>
          </mxGeometry>
        </mxCell>
        <mxCell id="PVSmNiR2cH8IBzTru6Gr-48" value="" style="endArrow=diamondThin;endFill=1;endSize=24;html=1;rounded=0;exitX=0.495;exitY=1.133;exitDx=0;exitDy=0;exitPerimeter=0;entryX=0.584;entryY=-0.023;entryDx=0;entryDy=0;entryPerimeter=0;" edge="1" parent="1" source="PVSmNiR2cH8IBzTru6Gr-34" target="PVSmNiR2cH8IBzTru6Gr-26">
          <mxGeometry width="160" relative="1" as="geometry">
            <mxPoint x="-860" y="153" as="sourcePoint" />
            <mxPoint x="-752" y="148" as="targetPoint" />
            <Array as="points" />
          </mxGeometry>
        </mxCell>
        <mxCell id="PVSmNiR2cH8IBzTru6Gr-49" value="Floor" style="swimlane;fontStyle=1;align=center;verticalAlign=top;childLayout=stackLayout;horizontal=1;startSize=26;horizontalStack=0;resizeParent=1;resizeParentMax=0;resizeLast=0;collapsible=1;marginBottom=0;whiteSpace=wrap;html=1;" vertex="1" parent="1">
          <mxGeometry x="-710" y="-240" width="260" height="158" as="geometry" />
        </mxCell>
        <mxCell id="PVSmNiR2cH8IBzTru6Gr-50" value="+ id: int&lt;div&gt;+ externalButton : ExternalButton&lt;/div&gt;" style="text;strokeColor=none;fillColor=none;align=left;verticalAlign=top;spacingLeft=4;spacingRight=4;overflow=hidden;rotatable=0;points=[[0,0.5],[1,0.5]];portConstraint=eastwest;whiteSpace=wrap;html=1;" vertex="1" parent="PVSmNiR2cH8IBzTru6Gr-49">
          <mxGeometry y="26" width="260" height="64" as="geometry" />
        </mxCell>
        <mxCell id="PVSmNiR2cH8IBzTru6Gr-51" value="" style="line;strokeWidth=1;fillColor=none;align=left;verticalAlign=middle;spacingTop=-1;spacingLeft=3;spacingRight=3;rotatable=0;labelPosition=right;points=[];portConstraint=eastwest;strokeColor=inherit;" vertex="1" parent="PVSmNiR2cH8IBzTru6Gr-49">
          <mxGeometry y="90" width="260" height="8" as="geometry" />
        </mxCell>
        <mxCell id="PVSmNiR2cH8IBzTru6Gr-52" value="+" style="text;strokeColor=none;fillColor=none;align=left;verticalAlign=top;spacingLeft=4;spacingRight=4;overflow=hidden;rotatable=0;points=[[0,0.5],[1,0.5]];portConstraint=eastwest;whiteSpace=wrap;html=1;" vertex="1" parent="PVSmNiR2cH8IBzTru6Gr-49">
          <mxGeometry y="98" width="260" height="60" as="geometry" />
        </mxCell>
        <mxCell id="PVSmNiR2cH8IBzTru6Gr-53" value="Building" style="swimlane;fontStyle=1;align=center;verticalAlign=top;childLayout=stackLayout;horizontal=1;startSize=26;horizontalStack=0;resizeParent=1;resizeParentMax=0;resizeLast=0;collapsible=1;marginBottom=0;whiteSpace=wrap;html=1;" vertex="1" parent="1">
          <mxGeometry x="-380" y="-310" width="260" height="158" as="geometry" />
        </mxCell>
        <mxCell id="PVSmNiR2cH8IBzTru6Gr-54" value="+ floorList : List&amp;lt;Floor&amp;gt;" style="text;strokeColor=none;fillColor=none;align=left;verticalAlign=top;spacingLeft=4;spacingRight=4;overflow=hidden;rotatable=0;points=[[0,0.5],[1,0.5]];portConstraint=eastwest;whiteSpace=wrap;html=1;" vertex="1" parent="PVSmNiR2cH8IBzTru6Gr-53">
          <mxGeometry y="26" width="260" height="64" as="geometry" />
        </mxCell>
        <mxCell id="PVSmNiR2cH8IBzTru6Gr-55" value="" style="line;strokeWidth=1;fillColor=none;align=left;verticalAlign=middle;spacingTop=-1;spacingLeft=3;spacingRight=3;rotatable=0;labelPosition=right;points=[];portConstraint=eastwest;strokeColor=inherit;" vertex="1" parent="PVSmNiR2cH8IBzTru6Gr-53">
          <mxGeometry y="90" width="260" height="8" as="geometry" />
        </mxCell>
        <mxCell id="PVSmNiR2cH8IBzTru6Gr-56" value="+" style="text;strokeColor=none;fillColor=none;align=left;verticalAlign=top;spacingLeft=4;spacingRight=4;overflow=hidden;rotatable=0;points=[[0,0.5],[1,0.5]];portConstraint=eastwest;whiteSpace=wrap;html=1;" vertex="1" parent="PVSmNiR2cH8IBzTru6Gr-53">
          <mxGeometry y="98" width="260" height="60" as="geometry" />
        </mxCell>
        <mxCell id="PVSmNiR2cH8IBzTru6Gr-57" value="" style="endArrow=diamondThin;endFill=1;endSize=24;html=1;rounded=0;exitX=-0.011;exitY=-0.123;exitDx=0;exitDy=0;exitPerimeter=0;entryX=0.673;entryY=-0.025;entryDx=0;entryDy=0;entryPerimeter=0;" edge="1" parent="1" source="PVSmNiR2cH8IBzTru6Gr-52" target="PVSmNiR2cH8IBzTru6Gr-31">
          <mxGeometry width="160" relative="1" as="geometry">
            <mxPoint x="-830" y="-110" as="sourcePoint" />
            <mxPoint x="-826" y="10" as="targetPoint" />
            <Array as="points">
              <mxPoint x="-830" y="-150" />
            </Array>
          </mxGeometry>
        </mxCell>
        <mxCell id="PVSmNiR2cH8IBzTru6Gr-58" value="" style="endArrow=diamondThin;endFill=1;endSize=24;html=1;rounded=0;exitX=-0.02;exitY=-0.072;exitDx=0;exitDy=0;exitPerimeter=0;entryX=0.652;entryY=-0.01;entryDx=0;entryDy=0;entryPerimeter=0;" edge="1" parent="1" source="PVSmNiR2cH8IBzTru6Gr-54" target="PVSmNiR2cH8IBzTru6Gr-49">
          <mxGeometry width="160" relative="1" as="geometry">
            <mxPoint x="-413" y="-309" as="sourcePoint" />
            <mxPoint x="-523" y="-154" as="targetPoint" />
            <Array as="points">
              <mxPoint x="-540" y="-290" />
            </Array>
          </mxGeometry>
        </mxCell>
        <mxCell id="PVSmNiR2cH8IBzTru6Gr-62" value="User" style="shape=umlActor;verticalLabelPosition=bottom;verticalAlign=top;html=1;outlineConnect=0;" vertex="1" parent="1">
          <mxGeometry x="-710" y="1180" width="30" height="60" as="geometry" />
        </mxCell>
        <mxCell id="PVSmNiR2cH8IBzTru6Gr-63" value="" style="rounded=0;whiteSpace=wrap;html=1;rotation=-90;" vertex="1" parent="1">
          <mxGeometry x="-560" y="1190" width="120" height="60" as="geometry" />
        </mxCell>
        <mxCell id="PVSmNiR2cH8IBzTru6Gr-64" value="&lt;b&gt;Elevator&lt;/b&gt;" style="text;html=1;align=center;verticalAlign=middle;resizable=0;points=[];autosize=1;strokeColor=none;fillColor=none;" vertex="1" parent="1">
          <mxGeometry x="-535" y="1128" width="70" height="30" as="geometry" />
        </mxCell>
        <mxCell id="PVSmNiR2cH8IBzTru6Gr-65" value="" style="html=1;shadow=0;dashed=0;align=center;verticalAlign=middle;shape=mxgraph.arrows2.arrow;dy=0.6;dx=40;direction=north;notch=0;" vertex="1" parent="1">
          <mxGeometry x="-710" y="1320" width="30" height="100" as="geometry" />
        </mxCell>
        <mxCell id="PVSmNiR2cH8IBzTru6Gr-67" value="" style="html=1;shadow=0;dashed=0;align=center;verticalAlign=middle;shape=mxgraph.arrows2.arrow;dy=0.6;dx=40;direction=north;notch=0;" vertex="1" parent="1">
          <mxGeometry x="-515" y="1320" width="30" height="100" as="geometry" />
        </mxCell>
        <mxCell id="PVSmNiR2cH8IBzTru6Gr-68" value="" style="html=1;shadow=0;dashed=0;align=center;verticalAlign=middle;shape=mxgraph.arrows2.arrow;dy=0.6;dx=40;direction=north;notch=0;" vertex="1" parent="1">
          <mxGeometry x="-710" y="1480" width="30" height="100" as="geometry" />
        </mxCell>
        <mxCell id="PVSmNiR2cH8IBzTru6Gr-69" value="" style="html=1;shadow=0;dashed=0;align=center;verticalAlign=middle;shape=mxgraph.arrows2.arrow;dy=0.6;dx=40;direction=north;notch=0;" vertex="1" parent="1">
          <mxGeometry x="-515" y="1615" width="30" height="85" as="geometry" />
        </mxCell>
        <mxCell id="PVSmNiR2cH8IBzTru6Gr-70" value="" style="html=1;shadow=0;dashed=0;align=center;verticalAlign=middle;shape=mxgraph.arrows2.arrow;dy=0.6;dx=40;direction=south;notch=0;" vertex="1" parent="1">
          <mxGeometry x="-515" y="1480" width="30" height="90" as="geometry" />
        </mxCell>
        <mxCell id="PVSmNiR2cH8IBzTru6Gr-71" value="" style="html=1;shadow=0;dashed=0;align=center;verticalAlign=middle;shape=mxgraph.arrows2.arrow;dy=0.6;dx=40;direction=south;notch=0;" vertex="1" parent="1">
          <mxGeometry x="-710" y="1620" width="30" height="90" as="geometry" />
        </mxCell>
        <mxCell id="PVSmNiR2cH8IBzTru6Gr-72" value="" style="html=1;shadow=0;dashed=0;align=center;verticalAlign=middle;shape=mxgraph.arrows2.arrow;dy=0.6;dx=40;direction=south;notch=0;" vertex="1" parent="1">
          <mxGeometry x="-710" y="1760" width="30" height="90" as="geometry" />
        </mxCell>
        <mxCell id="PVSmNiR2cH8IBzTru6Gr-73" value="" style="html=1;shadow=0;dashed=0;align=center;verticalAlign=middle;shape=mxgraph.arrows2.arrow;dy=0.6;dx=40;direction=south;notch=0;" vertex="1" parent="1">
          <mxGeometry x="-515" y="1760" width="30" height="90" as="geometry" />
        </mxCell>
        <mxCell id="PVSmNiR2cH8IBzTru6Gr-74" value="1." style="text;html=1;align=center;verticalAlign=middle;resizable=0;points=[];autosize=1;strokeColor=none;fillColor=none;" vertex="1" parent="1">
          <mxGeometry x="-835" y="1348" width="30" height="30" as="geometry" />
        </mxCell>
        <mxCell id="PVSmNiR2cH8IBzTru6Gr-75" value="2.&lt;span style=&quot;color: rgba(0, 0, 0, 0); font-family: monospace; font-size: 0px; text-align: start;&quot;&gt;%3CmxGraphModel%3E%3Croot%3E%3CmxCell%20id%3D%220%22%2F%3E%3CmxCell%20id%3D%221%22%20parent%3D%220%22%2F%3E%3CmxCell%20id%3D%222%22%20value%3D%221.%22%20style%3D%22text%3Bhtml%3D1%3Balign%3Dcenter%3BverticalAlign%3Dmiddle%3Bresizable%3D0%3Bpoints%3D%5B%5D%3Bautosize%3D1%3BstrokeColor%3Dnone%3BfillColor%3Dnone%3B%22%20vertex%3D%221%22%20parent%3D%221%22%3E%3CmxGeometry%20x%3D%22-835%22%20y%3D%221348%22%20width%3D%2230%22%20height%3D%2230%22%20as%3D%22geometry%22%2F%3E%3C%2FmxCell%3E%3C%2Froot%3E%3C%2FmxGraphModel%3E&lt;/span&gt;" style="text;html=1;align=center;verticalAlign=middle;resizable=0;points=[];autosize=1;strokeColor=none;fillColor=none;" vertex="1" parent="1">
          <mxGeometry x="-835" y="1490" width="30" height="30" as="geometry" />
        </mxCell>
        <mxCell id="PVSmNiR2cH8IBzTru6Gr-76" value="3." style="text;html=1;align=center;verticalAlign=middle;resizable=0;points=[];autosize=1;strokeColor=none;fillColor=none;" vertex="1" parent="1">
          <mxGeometry x="-835" y="1615" width="30" height="30" as="geometry" />
        </mxCell>
        <mxCell id="PVSmNiR2cH8IBzTru6Gr-77" value="4." style="text;html=1;align=center;verticalAlign=middle;resizable=0;points=[];autosize=1;strokeColor=none;fillColor=none;" vertex="1" parent="1">
          <mxGeometry x="-835" y="1750" width="30" height="30" as="geometry" />
        </mxCell>
        <mxCell id="PVSmNiR2cH8IBzTru6Gr-78" value="&lt;b style=&quot;font-size: 21px;&quot;&gt;USE CASE&lt;/b&gt;" style="text;html=1;align=center;verticalAlign=middle;resizable=0;points=[];autosize=1;strokeColor=none;fillColor=none;" vertex="1" parent="1">
          <mxGeometry x="-850" y="1103" width="130" height="40" as="geometry" />
        </mxCell>
        <mxCell id="PVSmNiR2cH8IBzTru6Gr-79" value="" style="endArrow=none;html=1;rounded=0;" edge="1" parent="1" source="PVSmNiR2cH8IBzTru6Gr-104">
          <mxGeometry width="50" height="50" relative="1" as="geometry">
            <mxPoint x="115" y="1660" as="sourcePoint" />
            <mxPoint x="735" y="1660" as="targetPoint" />
          </mxGeometry>
        </mxCell>
        <mxCell id="PVSmNiR2cH8IBzTru6Gr-93" value="" style="endArrow=none;html=1;rounded=0;" edge="1" parent="1" target="PVSmNiR2cH8IBzTru6Gr-92">
          <mxGeometry width="50" height="50" relative="1" as="geometry">
            <mxPoint x="115" y="1660" as="sourcePoint" />
            <mxPoint x="735" y="1660" as="targetPoint" />
          </mxGeometry>
        </mxCell>
        <mxCell id="PVSmNiR2cH8IBzTru6Gr-92" value="" style="shape=waypoint;sketch=0;size=6;pointerEvents=1;points=[];fillColor=none;resizable=0;rotatable=0;perimeter=centerPerimeter;snapToPoint=1;" vertex="1" parent="1">
          <mxGeometry x="150" y="1647.5" width="20" height="20" as="geometry" />
        </mxCell>
        <mxCell id="PVSmNiR2cH8IBzTru6Gr-95" value="" style="endArrow=none;html=1;rounded=0;" edge="1" parent="1" source="PVSmNiR2cH8IBzTru6Gr-92" target="PVSmNiR2cH8IBzTru6Gr-94">
          <mxGeometry width="50" height="50" relative="1" as="geometry">
            <mxPoint x="160" y="1658" as="sourcePoint" />
            <mxPoint x="735" y="1660" as="targetPoint" />
          </mxGeometry>
        </mxCell>
        <mxCell id="PVSmNiR2cH8IBzTru6Gr-94" value="" style="shape=waypoint;sketch=0;size=6;pointerEvents=1;points=[];fillColor=none;resizable=0;rotatable=0;perimeter=centerPerimeter;snapToPoint=1;" vertex="1" parent="1">
          <mxGeometry x="220" y="1647.5" width="20" height="20" as="geometry" />
        </mxCell>
        <mxCell id="PVSmNiR2cH8IBzTru6Gr-97" value="" style="endArrow=none;html=1;rounded=0;" edge="1" parent="1" source="PVSmNiR2cH8IBzTru6Gr-94" target="PVSmNiR2cH8IBzTru6Gr-96">
          <mxGeometry width="50" height="50" relative="1" as="geometry">
            <mxPoint x="230" y="1658" as="sourcePoint" />
            <mxPoint x="735" y="1660" as="targetPoint" />
          </mxGeometry>
        </mxCell>
        <mxCell id="PVSmNiR2cH8IBzTru6Gr-96" value="" style="shape=waypoint;sketch=0;size=6;pointerEvents=1;points=[];fillColor=none;resizable=0;rotatable=0;perimeter=centerPerimeter;snapToPoint=1;" vertex="1" parent="1">
          <mxGeometry x="305" y="1647.5" width="20" height="20" as="geometry" />
        </mxCell>
        <mxCell id="PVSmNiR2cH8IBzTru6Gr-99" value="" style="endArrow=none;html=1;rounded=0;" edge="1" parent="1" source="PVSmNiR2cH8IBzTru6Gr-96" target="PVSmNiR2cH8IBzTru6Gr-98">
          <mxGeometry width="50" height="50" relative="1" as="geometry">
            <mxPoint x="315" y="1658" as="sourcePoint" />
            <mxPoint x="735" y="1660" as="targetPoint" />
          </mxGeometry>
        </mxCell>
        <mxCell id="PVSmNiR2cH8IBzTru6Gr-98" value="" style="shape=waypoint;sketch=0;size=6;pointerEvents=1;points=[];fillColor=none;resizable=0;rotatable=0;perimeter=centerPerimeter;snapToPoint=1;" vertex="1" parent="1">
          <mxGeometry x="390" y="1650" width="20" height="20" as="geometry" />
        </mxCell>
        <mxCell id="PVSmNiR2cH8IBzTru6Gr-101" value="" style="endArrow=none;html=1;rounded=0;" edge="1" parent="1" source="PVSmNiR2cH8IBzTru6Gr-98" target="PVSmNiR2cH8IBzTru6Gr-100">
          <mxGeometry width="50" height="50" relative="1" as="geometry">
            <mxPoint x="390" y="1655" as="sourcePoint" />
            <mxPoint x="735" y="1660" as="targetPoint" />
          </mxGeometry>
        </mxCell>
        <mxCell id="PVSmNiR2cH8IBzTru6Gr-100" value="" style="shape=waypoint;sketch=0;size=6;pointerEvents=1;points=[];fillColor=none;resizable=0;rotatable=0;perimeter=centerPerimeter;snapToPoint=1;" vertex="1" parent="1">
          <mxGeometry x="470" y="1647.5" width="20" height="20" as="geometry" />
        </mxCell>
        <mxCell id="PVSmNiR2cH8IBzTru6Gr-103" value="" style="endArrow=none;html=1;rounded=0;" edge="1" parent="1" source="PVSmNiR2cH8IBzTru6Gr-100" target="PVSmNiR2cH8IBzTru6Gr-102">
          <mxGeometry width="50" height="50" relative="1" as="geometry">
            <mxPoint x="480" y="1658" as="sourcePoint" />
            <mxPoint x="735" y="1660" as="targetPoint" />
          </mxGeometry>
        </mxCell>
        <mxCell id="PVSmNiR2cH8IBzTru6Gr-102" value="" style="shape=waypoint;sketch=0;size=6;pointerEvents=1;points=[];fillColor=none;resizable=0;rotatable=0;perimeter=centerPerimeter;snapToPoint=1;" vertex="1" parent="1">
          <mxGeometry x="580" y="1650" width="20" height="20" as="geometry" />
        </mxCell>
        <mxCell id="PVSmNiR2cH8IBzTru6Gr-105" value="" style="endArrow=none;html=1;rounded=0;" edge="1" parent="1" source="PVSmNiR2cH8IBzTru6Gr-102" target="PVSmNiR2cH8IBzTru6Gr-104">
          <mxGeometry width="50" height="50" relative="1" as="geometry">
            <mxPoint x="590" y="1660" as="sourcePoint" />
            <mxPoint x="735" y="1660" as="targetPoint" />
          </mxGeometry>
        </mxCell>
        <mxCell id="PVSmNiR2cH8IBzTru6Gr-104" value="" style="shape=waypoint;sketch=0;size=6;pointerEvents=1;points=[];fillColor=none;resizable=0;rotatable=0;perimeter=centerPerimeter;snapToPoint=1;" vertex="1" parent="1">
          <mxGeometry x="660" y="1647.5" width="20" height="20" as="geometry" />
        </mxCell>
      </root>
    </mxGraphModel>
  </diagram>
</mxfile>
